# xmcd CD database file
#
# Track frame offsets:
#	150
#	12456
#	24056
#	35391
#	47090
#	59705
#	74385
#	84996
#	99008
#
# Disc length: 1478 seconds
#
# Revision: 2
# Processed by: cddbd v1.5.1PL0 Copyright (c) Steve Scherf et al.
# Submitted via: CDex 1.51
#
DISCID=6605c409
DTITLE=Ann Pascoe - Misty Morning Memories
DYEAR=2004
DGENRE=Country
TTITLE0=Misty Morning Memory
TTITLE1=Rendezvous With Destiny
TTITLE2=A Big IQ
TTITLE3=Didn't I ?
TTITLE4=Gone With The Wind
TTITLE5=Lonely Town
TTITLE6=Love Is Where You Leave Your Heart
TTITLE7=A New Point Of View
TTITLE8=There You Go Again
EXTD=YEAR: 2004
EXTT0=
EXTT1=
EXTT2=
EXTT3=
EXTT4=
EXTT5=
EXTT6=
EXTT7=
EXTT8=
PLAYORDER=
